<svg width="58" height="58" viewBox="0 0 58 58" fill="none" xmlns="http://www.w3.org/2000/svg">
<path d="M29 58C45.0159 58 58 45.0159 58 29C58 12.9841 45.0159 0 29 0C12.9841 0 0 12.9841 0 29C0 45.0159 12.9841 58 29 58ZM29 4.83337C42.3466 4.83337 53.1666 15.6534 53.1666 29C53.1666 42.3466 42.3466 53.1666 29 53.1666C15.6534 53.1666 4.83337 42.3466 4.83337 29C4.83337 15.6534 15.6534 4.83337 29 4.83337Z" fill="white"/>
<path d="M32.1245 42.7922C33.0682 43.7359 34.5984 43.7359 35.5422 42.7922C36.4859 41.8484 36.4859 40.3182 35.5422 39.3745L25.1677 29L35.5422 18.6254C36.4859 17.6817 36.4859 16.1515 35.5422 15.2078C34.5984 14.264 33.0682 14.264 32.1245 15.2078L20.0411 27.2911C19.0974 28.2349 19.0974 29.7651 20.0411 30.7088L32.1245 42.7922Z" fill="white"/>
</svg>
